<?xml version="1.0" encoding="utf-8"?>
<!-- Generator: Adobe Illustrator 19.2.0, SVG Export Plug-In . SVG Version: 6.00 Build 0)  -->
<svg version="1.1" baseProfile="basic" id="Layer_1"
	 xmlns="http://www.w3.org/2000/svg" xmlns:xlink="http://www.w3.org/1999/xlink" x="0px" y="0px" viewBox="0 0 229 238.1"
	 xml:space="preserve">
<g opacity="0.4">
	<polygon points="1214,999.5 1310.5,932 1310.5,852.6 1214.1,784.5 1117.5,852.6 1117.5,932 	"/>
	<line x1="1304.5" y1="892.2" x2="1318.5" y2="892.2"/>
	<line x1="1124.5" y1="893.2" x2="1110.5" y2="893.2"/>
</g>
<g>
	<g>
		<path fill="#FFFFFF" d="M1213.1,855c0-1.4-0.1-2.6-0.2-3.7c-0.2-1-0.5-1.8-0.9-2.5c-0.5-0.6-1.1-1.1-2-1.5
			c-0.9-0.3-3.9-0.6-5.3-0.7c-0.3,0-0.5-0.1-0.6-0.4c-0.1-0.3-0.2-0.5-0.2-0.8c0-0.3,0.1-0.5,0.2-0.8c0.1-0.2,0.3-0.3,0.6-0.3
			c1.5,0,3.2,0.1,5,0.2c1.9,0.1,3.7,0.2,5.3,0.2c1,0,1.9,0,2.7-0.1c0.9,0,1.7-0.1,2.5-0.1c0.8,0,1.6-0.1,2.5-0.1
			c0.8,0,1.7-0.1,2.7-0.1c0.3,0,0.5,0.1,0.6,0.3c0.1,0.2,0.2,0.5,0.1,0.8c0,0.3-0.1,0.5-0.2,0.8c-0.1,0.3-0.3,0.4-0.6,0.4
			c-1.4,0.1-4.5,0.3-5.4,0.6c-0.9,0.3-1.5,0.8-2,1.4c-0.5,0.6-0.8,1.4-0.9,2.5c-0.1,1-0.2,2.3-0.2,3.9v27.1c0,1.5,0.1,2.7,0.3,3.6
			c0.2,0.9,0.5,1.5,1,2c0.5,0.5,1.2,0.8,2,1c0.9,0.2,3.9,0.4,5.3,0.5c0.3,0,0.5,0.2,0.7,0.4c0.2,0.3,0.2,0.5,0.2,0.8
			c0,0.3-0.1,0.5-0.2,0.8c-0.2,0.2-0.4,0.3-0.7,0.3c-1.8,0-3.6-0.1-5.3-0.3c-1.7-0.2-3.4-0.3-5-0.3c-1.8,0-3.6,0.1-5.4,0.3
			c-1.9,0.2-3.6,0.3-5.1,0.3c-0.3,0-0.5-0.1-0.6-0.3c-0.1-0.2-0.2-0.5-0.2-0.8c0-0.3,0.1-0.5,0.2-0.8c0.1-0.3,0.3-0.4,0.6-0.4
			c1.4-0.1,4.5-0.3,5.3-0.5c0.9-0.2,1.5-0.5,2-1c0.5-0.5,0.8-1.1,1-2c0.2-0.9,0.2-2,0.2-3.6V855z"/>
	</g>
</g>
<g>
	<polygon fill="none" stroke="#FFFFFF" stroke-width="3" stroke-miterlimit="10" points="1214.5,999.5 1311,932 1311,852.6 
		1214.6,784.5 1118,852.6 1118,932 	"/>
	<line fill="none" stroke="#FFFFFF" stroke-width="3" stroke-miterlimit="10" x1="1304.5" y1="891.7" x2="1318.5" y2="891.7"/>
	<line fill="none" stroke="#FFFFFF" stroke-width="3" stroke-miterlimit="10" x1="1124.5" y1="892.7" x2="1110.5" y2="892.7"/>
</g>
<g opacity="0.4">
	<polygon points="114,226.6 210.5,159.1 210.5,79.6 114.1,11.5 17.5,79.6 17.5,159.1 	"/>
	<line x1="204.5" y1="119.2" x2="218.5" y2="119.2"/>
	<line x1="24.5" y1="120.2" x2="10.5" y2="120.2"/>
</g>
<g>
	<polygon fill="none" stroke="#FFFFFF" stroke-width="3" stroke-miterlimit="10" points="114.5,226.6 211,159.1 211,79.6 
		114.6,11.5 18,79.6 18,159.1 	"/>
	<line fill="none" stroke="#FFFFFF" stroke-width="3" stroke-miterlimit="10" x1="204.5" y1="118.7" x2="218.5" y2="118.7"/>
	<line fill="none" stroke="#FFFFFF" stroke-width="3" stroke-miterlimit="10" x1="24.5" y1="119.7" x2="10.5" y2="119.7"/>
</g>
</svg>
