<?xml version="1.0" encoding="utf-8"?>
<!-- Generator: Adobe Illustrator 19.2.1, SVG Export Plug-In . SVG Version: 6.00 Build 0)  -->
<svg version="1.1" id="boek.be_x2B_baseline" xmlns="http://www.w3.org/2000/svg" xmlns:xlink="http://www.w3.org/1999/xlink"
	 x="0px" y="0px" viewBox="0 0 193.3 153.1" style="enable-background:new 0 0 193.3 153.1;" xml:space="preserve">
<style type="text/css">
	.st1{fill:none;stroke:#FFFFFF;}
</style>
<g id="logo"><g>
  <path d="M15.6,52.6L0,49.3V10.6l15.3,3.2c2.6,0.6,4.8,3.2,4.8,6.1v10.5c0,2.9-1.3,4-3.4,3.6c2.3,0.5,3.6,3,3.6,5.9v8.7
    C20.2,51.5,18.2,53.2,15.6,52.6z M13.2,20.7l-6.4-1.4v8.3l6.4,1.4V20.7z M13.3,36.4L7,35v8l6.4,1.4V36.4z"/>
  <path d="M42.2,58.3l-5.6-1.2l-5.6-1.2c-2.6-0.6-4.4-3-4.4-5.9V21.4c0-2.9,2.2-4.6,4.8-4.1l5.2,1.1l5.2,1.1
    c2.6,0.6,4.8,3.2,4.8,6.1v28.6C46.7,57.1,44.8,58.8,42.2,58.3z M39.8,26.3L33.5,25v23.5l6.3,1.3V26.3z"/>
  <path d="M53.8,60.6V22.2L72,26v7.6l-11.3-2.4v7.7l8.9,1.9V48l-8.9-1.9v8.2L72,56.7v7.8L53.8,60.6z"/>
  <path d="M92.8,45.8c3.5,0.7,4.5,2.9,4.5,6.8V70l-6.2-1.3v-16l-5.8-1.2v16L78.2,66V27.5l7.1,1.5v15.2l0.6,0.1l5.7-14
    l6.9,1.5L92.8,45.8z"/>
  <path d="M123.7,110.1l-14.6,4.7V77.1l14.3-4.6c2.4-0.8,4.4,0.7,4.4,3.5v10.2c0,2.8-1.2,4.6-3.2,5.2
    c2.1-0.7,3.3,1.1,3.3,3.9v8.5C128,106.6,126.2,109.3,123.7,110.1z M121.5,80.1l-6,1.9v8.1l6-1.9V80.1z M121.6,95.4l-6,1.9v7.8
    l6-1.9V95.4z"/>
  <path d="M134.5,106.5V68.9l17-5.5v7.4l-10.6,3.4v7.5l8.3-2.7v7l-8.3,2.7v8l10.6-3.4v7.6L134.5,106.5z"/>
</g>
<line class="st1" x1="103.5" y1="0" x2="103.5" y2="153.1"/>
<path d="M86.6,95.8c-2.7,0-4.8-2-4.8-4.7c0-2.6,2.1-4.7,4.8-4.7c2.6,0,4.7,2.1,4.7,4.7C91.3,93.7,89.2,95.8,86.6,95.8z"
  />
<g>
  <path d="M8.6,134.9l2.8-0.1l-0.5,1.6l-5.4,0.2l3.6-7.1l-2.5,0.1l0.3-1.6l5.3-0.2L8.6,134.9z"/>
  <path d="M18.4,136.3c-0.2,0-1.5,0.3-2.5,0.3c-0.2,0-1.1,0-1.8-0.5c-0.3-0.2-0.5-0.4-0.6-0.6c-0.1-0.2-0.2-0.5-0.2-1
    c0-0.2,0-0.6,0.1-1.1l0.4-2.6c0.1-0.9,0.3-1.7,0.8-2.3c0.8-0.9,2.2-0.8,2.4-0.8c0.2,0,1.1,0,1.7,0.3c0.4,0.2,0.9,0.6,0.9,1.8
    c0,1.5-0.8,2.2-1.2,2.5c-1.1,0.8-2.6,1.1-2.9,1.1c0,0.1,0,0.2,0,0.5c0,0.4,0.1,0.6,0.2,0.6c0.2,0.2,0.9,0.3,1.2,0.3
    c1.2,0,1.8-0.4,2.2-0.7L18.4,136.3z M15.7,132.8c0.9-0.4,1.4-0.6,1.7-1.6c0-0.1,0.2-0.6,0.2-1c0-0.5-0.1-0.7-0.7-0.7
    c-0.2,0-0.4,0-0.6,0.2c-0.3,0.3-0.3,0.7-0.4,1.1L15.7,132.8z"/>
  <path d="M24.4,127.9h1.7l-0.5,1.5h-1.4l-0.5,4.5c-0.1,0.6-0.1,1,0.7,0.9c0.4,0,0.8-0.1,1.2-0.3l-0.6,1.7
    c-0.9,0.2-1.3,0.2-1.9,0.2c-0.4,0-0.8-0.1-1.1-0.2c-0.4-0.3-0.5-0.8-0.5-1.3c0-0.2,0-0.4,0.1-0.8l0.6-4.8h-1.2l0.5-1.5h0.8l0.2-2.1
    l2.2-0.2L24.4,127.9z"/>
  <path d="M33.9,139.8l-2.1,0.3l1.3-12l2.2-0.3L33.9,139.8z M33.1,125.4c0-0.7,0.6-1.3,1.3-1.3c0.7,0,1.3,0.6,1.3,1.3
    c0,0.8-0.6,1.3-1.3,1.3c-0.2,0-0.6,0-0.9-0.4C33.1,125.9,33.1,125.5,33.1,125.4z"/>
  <path d="M42.1,136.3c-0.2,0-1.5,0.3-2.5,0.3c-0.2,0-1.1,0-1.8-0.5c-0.3-0.2-0.5-0.4-0.6-0.6c-0.1-0.2-0.2-0.5-0.2-1
    c0-0.2,0-0.6,0.1-1.1l0.4-2.6c0.1-0.9,0.3-1.7,0.8-2.3c0.8-0.9,2.2-0.8,2.4-0.8c0.2,0,1.1,0,1.7,0.3c0.4,0.2,0.9,0.6,0.9,1.8
    c0,1.5-0.8,2.2-1.2,2.5c-1.1,0.8-2.6,1.1-2.9,1.1c0,0.1,0,0.2,0,0.5c0,0.4,0.1,0.6,0.2,0.6c0.2,0.2,0.9,0.3,1.2,0.3
    c1.2,0,1.8-0.4,2.2-0.7L42.1,136.3z M39.4,132.8c0.9-0.4,1.4-0.6,1.7-1.6c0-0.1,0.2-0.6,0.2-1c0-0.5-0.1-0.7-0.7-0.7
    c-0.2,0-0.4,0-0.6,0.2c-0.3,0.3-0.3,0.7-0.4,1.1L39.4,132.8z"/>
  <path d="M51.8,134.9l2.8-0.1l-0.5,1.6l-5.4,0.2l3.6-7.1l-2.5,0.1l0.3-1.6l5.3-0.2L51.8,134.9z"/>
  <path d="M58.8,136.4l-2.2,0.2l1-8.6l2.2-0.2L58.8,136.4z M57.6,125.3c0-0.7,0.6-1.3,1.3-1.3c0.7,0,1.3,0.6,1.3,1.3
    c0,0.8-0.6,1.3-1.3,1.3c-0.5,0-0.8-0.3-0.9-0.4C57.8,126,57.6,125.6,57.6,125.3z"/>
  <path d="M64.4,129.2c0.1-0.1,0.3-0.4,0.6-0.7c0.5-0.5,1.2-0.7,2-0.7c1.6,0,1.8,0.8,1.8,1.5c0,0.2,0,0.3-0.1,0.6
    l-0.6,4.1c-0.1,0.4-0.1,0.9,0.5,0.9c0.3,0,0.7-0.2,0.9-0.3l-0.8,1.6c-0.8,0.2-1.1,0.3-1.5,0.3c-0.2,0-0.5,0-0.9-0.2
    c-0.2-0.1-0.3-0.2-0.4-0.3c-0.1-0.1-0.1-0.3-0.1-0.6c0-0.3,0-0.5,0.1-0.6l0.6-4.1c0-0.3,0.1-0.8-0.1-1.1c-0.2-0.2-0.4-0.3-0.7-0.3
    c-0.1,0-0.3,0-0.6,0.1c-0.1,0.1-0.5,0.3-0.6,0.6c-0.1,0.2-0.1,0.5-0.1,0.7l-0.7,5.5l-2.2,0.2l1-8.6l2.2-0.2L64.4,129.2z"/>
  <path d="M74,129.2c0.1-0.1,0.3-0.4,0.6-0.7c0.5-0.5,1.2-0.7,2-0.7c1.6,0,1.8,0.8,1.8,1.5c0,0.2,0,0.3-0.1,0.6l-0.6,4.1
    c-0.1,0.4-0.1,0.9,0.5,0.9c0.3,0,0.7-0.2,0.9-0.3l-0.8,1.6c-0.8,0.2-1.1,0.3-1.5,0.3c-0.2,0-0.5,0-0.9-0.2
    c-0.2-0.1-0.3-0.2-0.4-0.3c-0.1-0.1-0.1-0.3-0.1-0.6c0-0.3,0-0.5,0.1-0.6l0.6-4.1c0-0.3,0.1-0.8-0.1-1.1c-0.2-0.2-0.4-0.3-0.7-0.3
    c-0.1,0-0.3,0-0.6,0.1c-0.1,0.1-0.5,0.3-0.6,0.6c-0.1,0.2-0.1,0.5-0.1,0.7l-0.7,5.5l-2.2,0.2l1-8.6l2.2-0.2L74,129.2z"/>
  <path d="M85.8,136.3c-0.2,0-1.5,0.3-2.5,0.3c-0.2,0-1.1,0-1.8-0.5c-0.3-0.2-0.5-0.4-0.6-0.6c-0.1-0.2-0.2-0.5-0.2-1
    c0-0.2,0-0.6,0.1-1.1l0.4-2.6c0.1-0.9,0.3-1.7,0.8-2.3c0.8-0.9,2.2-0.8,2.4-0.8c0.2,0,1.1,0,1.7,0.3c0.4,0.2,0.9,0.6,0.9,1.8
    c0,1.5-0.8,2.2-1.2,2.5c-1.1,0.8-2.6,1.1-2.9,1.1c0,0.1,0,0.2,0,0.5c0,0.4,0.1,0.6,0.2,0.6c0.2,0.2,0.9,0.3,1.2,0.3
    c1.2,0,1.8-0.4,2.2-0.7L85.8,136.3z M83.1,132.8c0.9-0.4,1.4-0.6,1.7-1.6c0-0.1,0.2-0.6,0.2-1c0-0.5-0.1-0.7-0.7-0.7
    c-0.2,0-0.4,0-0.6,0.2c-0.3,0.3-0.3,0.7-0.4,1.1L83.1,132.8z"/>
  <path d="M91.5,129.2c0.1-0.1,0.3-0.4,0.6-0.7c0.5-0.5,1.2-0.7,2-0.7c1.6,0,1.8,0.8,1.8,1.5c0,0.2,0,0.3-0.1,0.6
    l-0.6,4.1c-0.1,0.4-0.1,0.9,0.5,0.9c0.3,0,0.7-0.2,0.9-0.3l-0.8,1.6c-0.8,0.2-1.1,0.3-1.5,0.3c-0.2,0-0.5,0-0.9-0.2
    c-0.2-0.1-0.3-0.2-0.4-0.3c-0.1-0.1-0.1-0.3-0.1-0.6c0-0.3,0-0.5,0.1-0.6l0.6-4.1c0-0.3,0.1-0.8-0.1-1.1c-0.2-0.2-0.4-0.3-0.7-0.3
    c-0.1,0-0.3,0-0.6,0.1c-0.1,0.1-0.5,0.3-0.6,0.6c-0.1,0.2-0.1,0.5-0.1,0.7l-0.7,5.5l-2.2,0.2l1-8.6l2.2-0.2L91.5,129.2z"/>
  <path d="M114.1,133.7c0,0.2-0.1,0.3-0.1,0.5c-0.1,0.3-0.2,1.2-1,1.8c-0.5,0.4-1.4,0.6-2.8,0.6c-1.3,0-2-0.4-2.4-0.9
    c0-0.1-0.2-0.3-0.2-0.6c-0.1-0.4-0.1-0.9,0-1.3l0.3-3.1c0.1-0.9,0.3-1.3,0.5-1.7c0.6-1.1,1.8-1.2,2.9-1.2c1.3,0,1.9,0.1,2.4,0.5
    c0.3,0.3,0.4,0.5,0.5,0.7c0.1,0.2,0.1,0.4,0.1,0.9c0,0.2,0,0.4,0,0.7L114.1,133.7z M112.2,130.5c0-0.1,0-0.3,0-0.4
    c-0.1-0.4-0.4-0.5-0.8-0.5c-1,0-1.1,0.4-1.1,0.8l-0.4,3.5c0,0.4-0.1,0.7,0.1,0.9c0.2,0.3,0.5,0.2,0.8,0.2c0.1,0,0.3,0,0.5-0.1
    c0.5-0.2,0.6-0.8,0.6-0.9L112.2,130.5z"/>
  <path d="M119.2,129.3c0.3-0.5,0.9-1.5,2.4-1.5c0.1,0,0.6,0,1,0.2c0.5,0.2,0.8,0.5,0.8,1.5c0,0.3,0,0.6-0.1,1.2
    l-0.4,3.8c0,0.1-0.1,0.7-0.3,1.1c-0.4,0.9-1.1,1.1-2.1,1.1c-1,0-1.5-0.4-1.7-0.8c-0.1-0.1-0.2-0.3-0.3-0.6l-0.5,4.5l-2.2,0.2
    l1.4-12l2.2-0.2L119.2,129.3z M121.1,131c0.1-0.8,0.1-1.2-0.4-1.5c-0.1-0.1-0.3-0.1-0.5-0.1c-0.1,0-0.4,0-0.6,0.2
    c-0.4,0.3-0.5,0.8-0.6,1.2l-0.3,2.9c-0.1,0.7,0,1,0.4,1.2c0.1,0.1,0.2,0.1,0.6,0.1c0.3,0,0.5-0.1,0.6-0.1c0.3-0.2,0.4-0.4,0.6-1.1
    L121.1,131z"/>
  <path d="M135,136.3c-0.2,0-1.5,0.3-2.5,0.3c-0.2,0-1.1,0-1.8-0.5c-0.3-0.2-0.5-0.4-0.6-0.6c-0.1-0.2-0.2-0.5-0.2-1
    c0-0.2,0-0.6,0.1-1.1l0.4-2.6c0.1-0.9,0.3-1.7,0.8-2.3c0.8-0.9,2.2-0.8,2.4-0.8c0.2,0,1.1,0,1.7,0.3c0.4,0.2,0.9,0.6,0.9,1.8
    c0,1.5-0.8,2.2-1.2,2.5c-1.1,0.8-2.6,1.1-2.9,1.1c0,0.1,0,0.2,0,0.5c0,0.4,0.1,0.6,0.2,0.6c0.2,0.2,0.9,0.3,1.2,0.3
    c1.2,0,1.8-0.4,2.2-0.7L135,136.3z M132.3,132.8c0.9-0.4,1.4-0.6,1.7-1.6c0-0.1,0.2-0.6,0.2-1c0-0.5-0.1-0.7-0.7-0.7
    c-0.2,0-0.4,0-0.6,0.2c-0.3,0.3-0.3,0.7-0.4,1.1L132.3,132.8z"/>
  <path d="M142.9,136.3c-0.2,0-1.5,0.3-2.5,0.3c-0.2,0-1.1,0-1.8-0.5c-0.3-0.2-0.5-0.4-0.6-0.6c-0.1-0.2-0.2-0.5-0.2-1
    c0-0.2,0-0.6,0.1-1.1l0.4-2.6c0.1-0.9,0.3-1.7,0.8-2.3c0.8-0.9,2.2-0.8,2.4-0.8c0.2,0,1.1,0,1.7,0.3c0.4,0.2,0.9,0.6,0.9,1.8
    c0,1.5-0.8,2.2-1.2,2.5c-1.1,0.8-2.6,1.1-2.9,1.1c0,0.1,0,0.2,0,0.5c0,0.4,0.1,0.6,0.2,0.6c0.2,0.2,0.9,0.3,1.2,0.3
    c1.2,0,1.8-0.4,2.2-0.7L142.9,136.3z M140.2,132.8c0.9-0.4,1.4-0.6,1.7-1.6c0-0.1,0.2-0.6,0.2-1c0-0.5-0.1-0.7-0.7-0.7
    c-0.2,0-0.4,0-0.6,0.2c-0.3,0.3-0.3,0.7-0.4,1.1L140.2,132.8z"/>
  <path d="M148.4,129.2c0.1-0.1,0.3-0.4,0.6-0.7c0.5-0.5,1.2-0.7,2-0.7c1.6,0,1.8,0.8,1.8,1.5c0,0.2,0,0.3-0.1,0.6
    l-0.6,4.1c-0.1,0.4-0.1,0.9,0.5,0.9c0.3,0,0.7-0.2,0.9-0.3l-0.8,1.6c-0.8,0.2-1.1,0.3-1.5,0.3c-0.2,0-0.5,0-0.9-0.2
    c-0.2-0.1-0.3-0.2-0.4-0.3c-0.1-0.1-0.1-0.3-0.1-0.6c0-0.3,0-0.5,0.1-0.6l0.6-4.1c0-0.3,0.1-0.8-0.1-1.1c-0.2-0.2-0.4-0.3-0.7-0.3
    c-0.1,0-0.3,0-0.6,0.1c-0.1,0.1-0.5,0.3-0.6,0.6c-0.1,0.2-0.1,0.5-0.1,0.7l-0.7,5.5l-2.2,0.2l1-8.6l2.2-0.2L148.4,129.2z"/>
  <path d="M163.1,129.2c0.3-0.4,0.5-0.8,0.9-1c0.2-0.2,0.7-0.5,1.6-0.5c0.9,0,1.3,0.3,1.5,0.6c0.3,0.4,0.3,0.9,0.3,1.8
    l-0.5,4.1c0,0.2-0.1,1.1-0.6,1.8c-0.4,0.4-0.8,0.6-1.9,0.6c-0.2,0-1.1,0-1.7-0.7c-0.1-0.2-0.2-0.4-0.4-0.8l-0.1,1.2l-2.2,0.2
    l1.5-12.6l2.2-0.2L163.1,129.2z M165.2,130.6c0-0.1,0.1-0.7-0.2-0.9c-0.2-0.2-0.5-0.2-0.6-0.2c-0.1,0-0.3,0-0.5,0.1
    c-0.8,0.2-0.9,0.9-1,1.5l-0.3,2.6c0,0-0.1,0.8,0.2,1.2c0.2,0.2,0.7,0.2,0.8,0.2c0.1,0,0.4,0,0.7-0.1c0.5-0.2,0.5-0.7,0.6-1.1
    L165.2,130.6z"/>
  <path d="M175.7,133.7c0,0.2-0.1,0.3-0.1,0.5c-0.1,0.3-0.2,1.2-1,1.8c-0.5,0.4-1.4,0.6-2.8,0.6c-1.3,0-2-0.4-2.4-0.9
    c0-0.1-0.2-0.3-0.2-0.6c-0.1-0.4-0.1-0.9,0-1.3l0.3-3.1c0.1-0.9,0.2-1.3,0.5-1.7c0.6-1.1,1.8-1.2,2.9-1.2c1.3,0,1.9,0.1,2.4,0.5
    c0.3,0.3,0.4,0.5,0.5,0.7c0.1,0.2,0.1,0.4,0.1,0.9c0,0.2,0,0.4,0,0.7L175.7,133.7z M173.8,130.5c0-0.1,0-0.3,0-0.4
    c-0.1-0.4-0.4-0.5-0.8-0.5c-1,0-1.1,0.4-1.1,0.8l-0.4,3.5c0,0.4-0.1,0.7,0.1,0.9c0.2,0.3,0.5,0.2,0.8,0.2c0.1,0,0.3,0,0.5-0.1
    c0.5-0.2,0.6-0.8,0.6-0.9L173.8,130.5z"/>
  <path d="M183,136.3c-0.2,0-1.5,0.3-2.5,0.3c-0.2,0-1.1,0-1.8-0.5c-0.3-0.2-0.5-0.4-0.6-0.6c-0.1-0.2-0.2-0.5-0.2-1
    c0-0.2,0-0.6,0.1-1.1l0.4-2.6c0.1-0.9,0.3-1.7,0.8-2.3c0.8-0.9,2.2-0.8,2.4-0.8c0.2,0,1.1,0,1.7,0.3c0.4,0.2,0.9,0.6,0.9,1.8
    c0,1.5-0.8,2.2-1.2,2.5c-1.1,0.8-2.6,1.1-2.9,1.1c0,0.1,0,0.2,0,0.5c0,0.4,0.1,0.6,0.2,0.6c0.2,0.2,0.9,0.3,1.2,0.3
    c1.2,0,1.8-0.4,2.2-0.7L183,136.3z M180.3,132.8c0.9-0.4,1.4-0.6,1.7-1.6c0-0.1,0.2-0.6,0.2-1c0-0.5-0.1-0.7-0.7-0.7
    c-0.2,0-0.4,0-0.6,0.2c-0.3,0.3-0.3,0.7-0.4,1.1L180.3,132.8z"/>
  <path d="M188.3,131.1l2.2-3.1l2.5-0.2l-2.6,3.5c0.4-0.1,0.4-0.1,0.6-0.1c0.1,0,0.3,0,0.6,0.2c0.2,0.1,0.5,0.4,0.5,1
    c0,0.3-0.1,0.7-0.2,1.3c0,0.2-0.1,0.5-0.1,0.8c0,0.5,0.2,0.7,0.7,0.7c0.2,0,0.3,0,0.6-0.1l-0.6,1.5c-0.2,0.1-0.7,0.2-1.3,0.2
    c-1,0-1.3-0.2-1.5-0.7c-0.1-0.2-0.1-0.3-0.1-0.5c0-0.1,0-0.3,0.1-0.7c0.1-0.8,0.2-1.2,0.2-1.6c0-0.1,0-0.3-0.1-0.5
    c-0.1-0.3-0.5-0.3-0.8-0.2l-0.9,0.1l-0.5,4l-2.2,0.2l1.5-12.6l2.2-0.2L188.3,131.1z"/>
</g></g>
</svg>
