<svg id="boek.be_baseline" data-name="boek.be+baseline" xmlns="http://www.w3.org/2000/svg" viewBox="0 0 193.26 153.07"><defs><style>.cls-1{fill:#1d1d1b;}.cls-2{fill:none;stroke:#1d1d1b;}</style></defs><title>Boekbe+baseline_zw</title><path class="cls-1" d="M15.61,52.64L0,49.32V10.62l15.28,3.25A6.39,6.39,0,0,1,20,20v10.5c0,2.88-1.29,4-3.4,3.6,2.27,0.48,3.56,3,3.56,5.86v8.7C20.2,51.51,18.2,53.19,15.61,52.64Zm-2.43-32L6.8,19.32v8.34L13.18,29V20.68Zm0.16,15.7L7,35v8l6.37,1.35v-8Z"/><path class="cls-1" d="M42.23,58.3l-5.56-1.18L31.1,55.93A5.9,5.9,0,0,1,26.68,50V21.39c0-2.88,2.16-4.64,4.75-4.09l5.24,1.11,5.24,1.11a6.39,6.39,0,0,1,4.75,6.11V54.26C46.66,57.13,44.82,58.85,42.23,58.3Zm-2.43-32L33.53,25V48.47L39.8,49.8V26.34Z"/><path class="cls-1" d="M53.84,60.64V22.18L72,26V33.6L60.7,31.2v7.74l8.91,1.89V48L60.7,46.14V54.3L72,56.7v7.8Z"/><path class="cls-1" d="M92.77,45.82c3.51,0.75,4.48,2.93,4.48,6.83V70L91.1,68.74v-16l-5.83-1.24v16L78.19,66V27.54L85.26,29V44.22l0.65,0.14,5.67-14,6.91,1.47Z"/><path class="cls-1" d="M123.74,110.07l-14.61,4.75V77.07l14.3-4.65c2.43-.79,4.45.72,4.45,3.53V86.19c0,2.81-1.21,4.6-3.18,5.25,2.12-.69,3.34,1.08,3.34,3.89v8.49A6.69,6.69,0,0,1,123.74,110.07Zm-2.28-29.92-6,1.94v8.13l6-1.94V80.15Zm0.15,15.22-6,1.94v7.79l6-1.94V95.37Z"/><path class="cls-1" d="M134.51,106.45V68.95l17-5.52V70.8l-10.56,3.43v7.55l8.34-2.71v7l-8.34,2.71v8l10.56-3.43v7.6Z"/><line class="cls-2" x1="103.46" x2="103.46" y2="153.07"/><path class="cls-1" d="M86.56,95.77A4.74,4.74,0,1,1,91.3,91,4.69,4.69,0,0,1,86.56,95.77Z"/><path class="cls-1" d="M8.64,134.89l2.75-.12-0.46,1.63-5.41.2,3.55-7.06-2.46.09L6.94,128l5.3-.21Z"/><path class="cls-1" d="M18.41,136.32a14.64,14.64,0,0,1-2.5.3,3.07,3.07,0,0,1-1.8-.48,2,2,0,0,1-.55-0.59,2,2,0,0,1-.2-1,7.34,7.34,0,0,1,.09-1.05l0.36-2.59a4.08,4.08,0,0,1,.8-2.27A3.37,3.37,0,0,1,17,127.8a4.51,4.51,0,0,1,1.71.27,1.74,1.74,0,0,1,.93,1.84,3,3,0,0,1-1.2,2.52,6.82,6.82,0,0,1-2.86,1.11,2.51,2.51,0,0,0,0,.46,0.82,0.82,0,0,0,.2.64,2,2,0,0,0,1.18.3,3.79,3.79,0,0,0,2.21-.68Zm-2.68-3.5a2.24,2.24,0,0,0,1.68-1.59,3.58,3.58,0,0,0,.18-1c0-.54-0.14-0.73-0.66-0.73a0.66,0.66,0,0,0-.55.2,1.87,1.87,0,0,0-.36,1.05Z"/><path class="cls-1" d="M24.42,127.92H26.1l-0.48,1.5H24.23l-0.54,4.5c-0.05.59-.07,1,0.66,0.95a3.27,3.27,0,0,0,1.18-.27l-0.62,1.73a7.92,7.92,0,0,1-1.86.25,2.16,2.16,0,0,1-1.14-.25,1.64,1.64,0,0,1-.46-1.3c0-.2,0-0.41.05-0.77l0.61-4.84H20.94l0.5-1.5h0.84l0.25-2.14,2.18-.25Z"/><path class="cls-1" d="M33.87,139.8l-2.14.27,1.34-12,2.18-.29ZM33.1,125.35a1.31,1.31,0,1,1,.38.93A1.34,1.34,0,0,1,33.1,125.35Z"/><path class="cls-1" d="M42.09,136.32a14.64,14.64,0,0,1-2.5.3,3.07,3.07,0,0,1-1.8-.48,2,2,0,0,1-.55-0.59,2,2,0,0,1-.2-1,7.42,7.42,0,0,1,.09-1.05l0.36-2.59a4.08,4.08,0,0,1,.8-2.27,3.37,3.37,0,0,1,2.45-.84,4.51,4.51,0,0,1,1.71.27,1.74,1.74,0,0,1,.93,1.84,3,3,0,0,1-1.2,2.52,6.82,6.82,0,0,1-2.86,1.11,2.58,2.58,0,0,0,0,.46,0.82,0.82,0,0,0,.2.64,2,2,0,0,0,1.18.3,3.79,3.79,0,0,0,2.21-.68Zm-2.68-3.5a2.24,2.24,0,0,0,1.68-1.59,3.59,3.59,0,0,0,.18-1c0-.54-0.14-0.73-0.66-0.73a0.66,0.66,0,0,0-.55.2,1.86,1.86,0,0,0-.36,1.05Z"/><path class="cls-1" d="M51.79,134.89l2.75-.12-0.46,1.63-5.41.2,3.55-7.06-2.46.09L50.09,128l5.3-.21Z"/><path class="cls-1" d="M58.77,136.37l-2.18.23,1-8.57,2.18-.23Zm-1.12-11.09A1.35,1.35,0,0,1,59,123.94a1.33,1.33,0,1,1-.95,2.27A1.38,1.38,0,0,1,57.64,125.28Z"/><path class="cls-1" d="M64.45,129.19a8.84,8.84,0,0,1,.61-0.7,3,3,0,0,1,2-.7c1.57,0,1.75.84,1.75,1.5a5.26,5.26,0,0,1-.05.63L68.18,134c-0.05.45-.12,0.95,0.48,0.95a2.45,2.45,0,0,0,.95-0.3l-0.75,1.59a4.52,4.52,0,0,1-1.54.3,2,2,0,0,1-.91-0.2,1,1,0,0,1-.41-0.3,1,1,0,0,1-.14-0.57,4.13,4.13,0,0,1,.05-0.64l0.59-4.09a1.46,1.46,0,0,0-.14-1.05,0.88,0.88,0,0,0-.7-0.27,1.1,1.1,0,0,0-.59.14,1.35,1.35,0,0,0-.64.64,2.7,2.7,0,0,0-.12.68l-0.68,5.48-2.16.2,1-8.59,2.16-.21Z"/><path class="cls-1" d="M74,129.19a9,9,0,0,1,.61-0.7,3,3,0,0,1,2-.7c1.57,0,1.75.84,1.75,1.5a5.19,5.19,0,0,1-.05.63L77.7,134c-0.05.45-.12,0.95,0.48,0.95a2.45,2.45,0,0,0,.95-0.3l-0.75,1.59a4.53,4.53,0,0,1-1.54.3,2,2,0,0,1-.91-0.2,1,1,0,0,1-.41-0.3,1,1,0,0,1-.14-0.57,4.06,4.06,0,0,1,.05-0.64L76,130.76a1.46,1.46,0,0,0-.14-1.05,0.88,0.88,0,0,0-.7-0.27,1.1,1.1,0,0,0-.59.14,1.35,1.35,0,0,0-.64.64,2.69,2.69,0,0,0-.12.68l-0.68,5.48-2.16.2L72,128l2.16-.21Z"/><path class="cls-1" d="M85.81,136.32a14.65,14.65,0,0,1-2.5.3,3.07,3.07,0,0,1-1.8-.48,2,2,0,0,1-.55-0.59,2,2,0,0,1-.2-1,7.36,7.36,0,0,1,.09-1.05l0.36-2.59a4.08,4.08,0,0,1,.8-2.27,3.37,3.37,0,0,1,2.45-.84,4.51,4.51,0,0,1,1.71.27,1.74,1.74,0,0,1,.93,1.84,3,3,0,0,1-1.2,2.52A6.81,6.81,0,0,1,83,133.53a2.51,2.51,0,0,0,0,.46,0.82,0.82,0,0,0,.2.64,2,2,0,0,0,1.18.3,3.79,3.79,0,0,0,2.21-.68Zm-2.68-3.5a2.24,2.24,0,0,0,1.68-1.59,3.58,3.58,0,0,0,.18-1c0-.54-0.14-0.73-0.66-0.73a0.66,0.66,0,0,0-.55.2,1.87,1.87,0,0,0-.36,1.05Z"/><path class="cls-1" d="M91.52,129.19a8.92,8.92,0,0,1,.61-0.7,3,3,0,0,1,2-.7c1.57,0,1.75.84,1.75,1.5a5.28,5.28,0,0,1-.05.63L95.26,134c-0.05.45-.13,0.95,0.48,0.95a2.46,2.46,0,0,0,.95-0.3l-0.75,1.59a4.53,4.53,0,0,1-1.54.3,2,2,0,0,1-.91-0.2,1,1,0,0,1-.41-0.3,1,1,0,0,1-.14-0.57,4,4,0,0,1,.05-0.64l0.59-4.09a1.46,1.46,0,0,0-.14-1.05,0.88,0.88,0,0,0-.7-0.27,1.1,1.1,0,0,0-.59.14,1.35,1.35,0,0,0-.64.64,2.68,2.68,0,0,0-.12.68l-0.68,5.48-2.16.2,1-8.59,2.16-.21Z"/><path class="cls-1" d="M114.1,133.73c0,0.18-.05.34-0.07,0.5a2.72,2.72,0,0,1-1,1.77,4.69,4.69,0,0,1-2.77.61,2.5,2.5,0,0,1-2.36-.95,2.32,2.32,0,0,1-.21-0.57,4.3,4.3,0,0,1,0-1.27l0.34-3.07a4.64,4.64,0,0,1,.48-1.73c0.61-1.12,1.79-1.21,2.95-1.21a3.51,3.51,0,0,1,2.39.52,1.77,1.77,0,0,1,.46.66,2.41,2.41,0,0,1,.13.89c0,0.23,0,.45,0,0.66Zm-1.86-3.27a1.82,1.82,0,0,0,0-.45,0.64,0.64,0,0,0-.8-0.54c-1,0-1.07.39-1.13,0.84l-0.43,3.52a1.2,1.2,0,0,0,.09.86,0.9,0.9,0,0,0,.82.25,1.21,1.21,0,0,0,.5-0.09,1,1,0,0,0,.57-0.91Z"/><path class="cls-1" d="M119.19,129.26a2.72,2.72,0,0,1,2.45-1.46,3.06,3.06,0,0,1,1,.16c0.46,0.18.79,0.48,0.79,1.52a10.19,10.19,0,0,1-.11,1.2l-0.43,3.75a5.89,5.89,0,0,1-.3,1.09,2,2,0,0,1-2.05,1.11,1.91,1.91,0,0,1-1.7-.79,3.07,3.07,0,0,1-.3-0.64l-0.5,4.54-2.18.25,1.38-12,2.16-.21ZM121.1,131c0.09-.84.07-1.25-0.37-1.46a1.49,1.49,0,0,0-.5-0.09,1.25,1.25,0,0,0-.61.16,1.52,1.52,0,0,0-.57,1.2l-0.34,2.91a1,1,0,0,0,.38,1.2,1.12,1.12,0,0,0,.55.11,1.38,1.38,0,0,0,.55-0.11,1.22,1.22,0,0,0,.55-1.09Z"/><path class="cls-1" d="M135,136.32a14.63,14.63,0,0,1-2.5.3,3.08,3.08,0,0,1-1.8-.48,2,2,0,0,1-.55-0.59,2,2,0,0,1-.2-1,7.3,7.3,0,0,1,.09-1.05l0.36-2.59a4.09,4.09,0,0,1,.8-2.27,3.37,3.37,0,0,1,2.45-.84,4.51,4.51,0,0,1,1.71.27,1.74,1.74,0,0,1,.93,1.84,3,3,0,0,1-1.2,2.52,6.82,6.82,0,0,1-2.86,1.11,2.53,2.53,0,0,0,0,.46,0.82,0.82,0,0,0,.2.64,2,2,0,0,0,1.18.3,3.78,3.78,0,0,0,2.21-.68Zm-2.68-3.5a2.24,2.24,0,0,0,1.68-1.59,3.58,3.58,0,0,0,.18-1c0-.54-0.14-0.73-0.66-0.73a0.66,0.66,0,0,0-.55.2,1.87,1.87,0,0,0-.36,1.05Z"/><path class="cls-1" d="M142.87,136.32a14.66,14.66,0,0,1-2.5.3,3.07,3.07,0,0,1-1.8-.48,1.93,1.93,0,0,1-.55-0.59,2,2,0,0,1-.2-1,7.29,7.29,0,0,1,.09-1.05l0.36-2.59a4.1,4.1,0,0,1,.8-2.27,3.37,3.37,0,0,1,2.45-.84,4.51,4.51,0,0,1,1.71.27,1.74,1.74,0,0,1,.93,1.84,3,3,0,0,1-1.2,2.52,6.81,6.81,0,0,1-2.86,1.11,2.46,2.46,0,0,0,0,.46,0.82,0.82,0,0,0,.2.64,2,2,0,0,0,1.18.3,3.79,3.79,0,0,0,2.21-.68Zm-2.68-3.5a2.24,2.24,0,0,0,1.68-1.59,3.6,3.6,0,0,0,.18-1c0-.54-0.14-0.73-0.66-0.73a0.67,0.67,0,0,0-.55.2,1.88,1.88,0,0,0-.36,1.05Z"/><path class="cls-1" d="M148.43,129.19a9.08,9.08,0,0,1,.61-0.7,3,3,0,0,1,2-.7c1.57,0,1.75.84,1.75,1.5a5.3,5.3,0,0,1-.05.63L152.16,134c-0.05.45-.12,0.95,0.48,0.95a2.46,2.46,0,0,0,.95-0.3l-0.75,1.59a4.52,4.52,0,0,1-1.54.3,2,2,0,0,1-.91-0.2,1,1,0,0,1-.41-0.3,1,1,0,0,1-.14-0.57,4,4,0,0,1,.05-0.64l0.59-4.09a1.45,1.45,0,0,0-.14-1.05,0.88,0.88,0,0,0-.7-0.27,1.09,1.09,0,0,0-.59.14,1.34,1.34,0,0,0-.64.64,2.68,2.68,0,0,0-.12.68l-0.68,5.48-2.16.2,1-8.59,2.16-.21Z"/><path class="cls-1" d="M163.09,129.24a4.44,4.44,0,0,1,.89-1,2.59,2.59,0,0,1,1.59-.46,1.8,1.8,0,0,1,1.54.55,2.67,2.67,0,0,1,.29,1.82l-0.46,4.09a3.52,3.52,0,0,1-.62,1.79,2.13,2.13,0,0,1-1.91.61,2.08,2.08,0,0,1-1.66-.66,2.51,2.51,0,0,1-.36-0.79l-0.14,1.21-2.16.2L161.59,124l2.18-.2Zm2.11,1.36a1.16,1.16,0,0,0-.2-0.95,0.85,0.85,0,0,0-.62-0.2,2.42,2.42,0,0,0-.54.05,1.47,1.47,0,0,0-1,1.5l-0.32,2.61a1.55,1.55,0,0,0,.22,1.16,1.34,1.34,0,0,0,.77.2,1.9,1.9,0,0,0,.68-0.11,1.24,1.24,0,0,0,.59-1.14Z"/><path class="cls-1" d="M175.68,133.73c0,0.18-.05.34-0.07,0.5a2.72,2.72,0,0,1-1,1.77,4.69,4.69,0,0,1-2.77.61,2.5,2.5,0,0,1-2.36-.95,2.27,2.27,0,0,1-.21-0.57,4.3,4.3,0,0,1,0-1.27l0.34-3.07a4.6,4.6,0,0,1,.48-1.73c0.61-1.12,1.79-1.21,2.95-1.21a3.52,3.52,0,0,1,2.39.52,1.79,1.79,0,0,1,.47.66,2.46,2.46,0,0,1,.12.89c0,0.23,0,.45,0,0.66Zm-1.86-3.27a1.73,1.73,0,0,0,0-.45,0.64,0.64,0,0,0-.8-0.54c-1,0-1.07.39-1.12,0.84l-0.43,3.52a1.19,1.19,0,0,0,.09.86,0.9,0.9,0,0,0,.82.25,1.21,1.21,0,0,0,.5-0.09,1,1,0,0,0,.57-0.91Z"/><path class="cls-1" d="M183,136.32a14.66,14.66,0,0,1-2.5.3,3.07,3.07,0,0,1-1.8-.48,1.93,1.93,0,0,1-.55-0.59,2,2,0,0,1-.2-1,7.29,7.29,0,0,1,.09-1.05l0.36-2.59a4.09,4.09,0,0,1,.8-2.27,3.37,3.37,0,0,1,2.45-.84,4.5,4.5,0,0,1,1.71.27,1.74,1.74,0,0,1,.93,1.84,3,3,0,0,1-1.2,2.52,6.81,6.81,0,0,1-2.86,1.11,2.37,2.37,0,0,0,0,.46,0.82,0.82,0,0,0,.2.64,2,2,0,0,0,1.18.3,3.78,3.78,0,0,0,2.21-.68Zm-2.68-3.5a2.24,2.24,0,0,0,1.68-1.59,3.59,3.59,0,0,0,.18-1c0-.54-0.14-0.73-0.66-0.73a0.66,0.66,0,0,0-.55.2,1.87,1.87,0,0,0-.36,1.05Z"/><path class="cls-1" d="M188.34,131.1l2.21-3.07,2.48-.25-2.57,3.46a1.84,1.84,0,0,1,.64-0.12,1.2,1.2,0,0,1,.59.16,1,1,0,0,1,.5,1,8.06,8.06,0,0,1-.16,1.3,5.13,5.13,0,0,0-.11.75,0.61,0.61,0,0,0,.71.7,1.84,1.84,0,0,0,.61-0.11l-0.64,1.48a5.1,5.1,0,0,1-1.27.2c-1,0-1.32-.25-1.48-0.7a1.34,1.34,0,0,1-.09-0.54,4,4,0,0,1,.07-0.66,12.48,12.48,0,0,0,.21-1.59,1.14,1.14,0,0,0-.11-0.52,0.77,0.77,0,0,0-.8-0.25l-0.95.05-0.46,4-2.18.2,1.5-12.63,2.16-.2Z"/></svg>