<?xml version="1.0" encoding="utf-8"?>
<!-- Generator: Adobe Illustrator 19.2.0, SVG Export Plug-In . SVG Version: 6.00 Build 0)  -->
<svg version="1.1" baseProfile="basic" xmlns="http://www.w3.org/2000/svg" xmlns:xlink="http://www.w3.org/1999/xlink" x="0px"
	 y="0px" viewBox="0 0 71.9 143.4" xml:space="preserve">
<g id="_x31_">
	<title>Untitled-3</title>
	<path fill="#F7F7F7" d="M34,10.7c0-1.2-0.1-2.5-0.2-3.7c-0.1-0.9-0.4-1.8-0.9-2.5c-0.5-0.7-1.2-1.2-2-1.5c-1.8-0.4-3.6-0.6-5.4-0.6
		c-0.3,0-0.5-0.1-0.6-0.4c-0.1-0.2-0.2-0.5-0.2-0.8c0-0.3,0.1-0.6,0.2-0.8C24.9,0.1,25.1,0,25.4,0c1.5,0,3.2,0.1,5.1,0.2
		c1.9,0.1,3.7,0.2,5.4,0.2c1,0,1.9,0,2.8-0.1l2.5-0.1l2.5-0.1C44.5,0,45.4,0,46.4,0c0.3,0,0.5,0.1,0.6,0.3c0.1,0.2,0.2,0.5,0.1,0.8
		c0,0.3-0.1,0.6-0.2,0.8c-0.1,0.2-0.3,0.4-0.5,0.4c-1.8,0.1-3.7,0.3-5.4,0.6c-0.8,0.3-1.5,0.7-2,1.4C38.4,5.1,38.1,6,38,6.9
		c-0.2,1.3-0.2,2.6-0.2,3.9v27.5c0,1.2,0.1,2.4,0.3,3.6c0.1,0.8,0.5,1.4,1,2c0.6,0.5,1.3,0.9,2.1,1c0.9,0.2,4,0.4,5.4,0.5
		c0.3,0.1,0.5,0.2,0.7,0.5c0.2,0.2,0.2,0.5,0.2,0.8c0,0.3-0.1,0.5-0.2,0.8c-0.2,0.2-0.4,0.4-0.7,0.4c-1.8,0-3.6-0.1-5.4-0.3
		c-1.7-0.2-3.4-0.3-5.1-0.3c-1.8,0-3.6,0.1-5.5,0.3c-1.9,0.2-3.6,0.3-5.2,0.3c-0.3,0-0.5-0.1-0.6-0.4c-0.1-0.2-0.2-0.5-0.2-0.8
		c0-0.3,0.1-0.6,0.2-0.8c0.1-0.2,0.4-0.4,0.6-0.5c1.4-0.1,4.6-0.3,5.4-0.5c0.7-0.2,1.4-0.5,2-1c0.5-0.5,0.9-1.2,1-2
		c0.2-1.2,0.3-2.4,0.2-3.6L34,10.7L34,10.7z"/>
</g>
<g id="_x32__1_">
	<g>
		<path fill="#F7F7F7" d="M21.7,58.5c0-1.2-0.1-2.5-0.2-3.7c-0.1-0.9-0.4-1.8-0.9-2.5c-0.5-0.7-1.2-1.2-2-1.5
			c-1.8-0.4-3.6-0.6-5.4-0.6c-0.3,0-0.5-0.1-0.6-0.4c-0.1-0.2-0.2-0.5-0.2-0.8c0-0.3,0.1-0.6,0.2-0.8c0.1-0.2,0.4-0.4,0.6-0.4
			c1.5,0,3.2,0.1,5.1,0.2c1.9,0.1,3.7,0.2,5.4,0.2c1,0,1.9,0,2.8-0.1l2.5-0.1l2.5-0.1c0.8,0,1.8-0.1,2.7-0.1c0.3,0,0.5,0.1,0.6,0.3
			c0.1,0.2,0.2,0.5,0.1,0.8c0,0.3-0.1,0.6-0.2,0.8c-0.1,0.2-0.3,0.4-0.5,0.4c-1.8,0.1-3.7,0.3-5.4,0.6c-0.8,0.3-1.5,0.7-2,1.4
			c-0.5,0.7-0.8,1.6-0.9,2.5c-0.2,1.3-0.2,2.6-0.2,3.9v27.5c0,1.2,0.1,2.4,0.3,3.6c0.1,0.8,0.5,1.4,1,2c0.6,0.5,1.3,0.9,2.1,1
			c0.9,0.2,4,0.4,5.4,0.5c0.3,0.1,0.5,0.2,0.7,0.5c0.2,0.2,0.2,0.5,0.2,0.8c0,0.3-0.1,0.5-0.2,0.8c-0.2,0.2-0.4,0.4-0.7,0.4
			c-1.8,0-3.6-0.1-5.4-0.3c-1.7-0.2-3.4-0.3-5.1-0.3c-1.8,0-3.6,0.1-5.5,0.3c-1.9,0.2-3.6,0.3-5.2,0.3c-0.3,0-0.5-0.1-0.6-0.4
			c-0.1-0.2-0.2-0.5-0.2-0.8c0-0.3,0.1-0.6,0.2-0.8c0.1-0.2,0.4-0.4,0.6-0.5c1.4-0.1,4.6-0.3,5.4-0.5c0.7-0.2,1.4-0.5,2-1
			c0.5-0.5,0.9-1.2,1-2c0.2-1.2,0.3-2.4,0.2-3.6L21.7,58.5L21.7,58.5z"/>
		<path fill="#F7F7F7" d="M46.2,58.5c0-1.2-0.1-2.5-0.2-3.7c-0.1-0.9-0.4-1.8-0.9-2.5c-0.5-0.7-1.2-1.2-2-1.5
			c-1.8-0.4-3.6-0.6-5.4-0.6c-0.3,0-0.5-0.1-0.6-0.4c-0.1-0.2-0.2-0.5-0.2-0.8c0-0.3,0.1-0.6,0.2-0.8c0.1-0.2,0.4-0.4,0.6-0.4
			c1.5,0,3.2,0.1,5.1,0.2c1.9,0.1,3.7,0.2,5.4,0.2c1,0,1.9,0,2.8-0.1l2.5-0.1l2.5-0.1c0.8,0,1.8-0.1,2.7-0.1c0.3,0,0.5,0.1,0.6,0.3
			c0.1,0.2,0.2,0.5,0.1,0.8c0,0.3-0.1,0.6-0.2,0.8c-0.1,0.2-0.3,0.4-0.5,0.4c-1.8,0.1-3.7,0.3-5.4,0.6c-0.8,0.3-1.5,0.7-2,1.4
			c-0.5,0.7-0.8,1.6-0.9,2.5c-0.2,1.3-0.2,2.6-0.2,3.9v27.5c0,1.2,0.1,2.4,0.3,3.6c0.1,0.8,0.5,1.4,1,2c0.6,0.5,1.3,0.9,2.1,1
			c0.9,0.2,4,0.4,5.4,0.5c0.3,0.1,0.5,0.2,0.7,0.5c0.2,0.2,0.2,0.5,0.2,0.8c0,0.3-0.1,0.5-0.2,0.8c-0.2,0.2-0.4,0.4-0.7,0.4
			c-1.8,0-3.6-0.1-5.4-0.3C51.6,95.1,50,95,48.3,95c-1.8,0-3.6,0.1-5.5,0.3c-1.9,0.2-3.6,0.3-5.2,0.3c-0.3,0-0.5-0.1-0.6-0.4
			c-0.1-0.2-0.2-0.5-0.2-0.8c0-0.3,0.1-0.6,0.2-0.8c0.1-0.2,0.4-0.4,0.6-0.5c1.4-0.1,4.6-0.3,5.4-0.5c0.7-0.2,1.4-0.5,2-1
			c0.5-0.5,0.9-1.2,1-2c0.2-1.2,0.3-2.4,0.2-3.6L46.2,58.5L46.2,58.5z"/>
	</g>
</g>
<g id="_x33_">
	<g>
		<path fill="#F7F7F7" d="M9.5,106.3c0-1.2-0.1-2.5-0.2-3.7c-0.1-0.9-0.4-1.8-0.9-2.5c-0.5-0.7-1.2-1.2-2-1.5
			c-1.8-0.4-3.6-0.6-5.4-0.6c-0.3,0-0.5-0.1-0.6-0.4C0.1,97.3,0,97,0,96.7c0-0.3,0.1-0.6,0.2-0.8c0.1-0.2,0.4-0.4,0.6-0.4
			c1.5,0,3.2,0.1,5.1,0.2c1.9,0.1,3.7,0.2,5.4,0.2c1,0,1.9,0,2.8-0.1l2.5-0.1l2.5-0.1c0.8,0,1.8-0.1,2.7-0.1c0.3,0,0.5,0.1,0.6,0.3
			c0.1,0.2,0.2,0.5,0.1,0.8c0,0.3-0.1,0.6-0.2,0.8c-0.1,0.2-0.3,0.4-0.5,0.4c-1.8,0.1-3.7,0.3-5.4,0.6c-0.8,0.3-1.5,0.7-2,1.4
			c-0.5,0.7-0.8,1.6-0.9,2.5c-0.2,1.3-0.2,2.6-0.2,3.9v27.5c0,1.2,0.1,2.4,0.3,3.6c0.1,0.8,0.5,1.4,1,2c0.6,0.5,1.3,0.9,2.1,1
			c0.9,0.2,4,0.4,5.4,0.5c0.3,0.1,0.5,0.2,0.7,0.5c0.2,0.2,0.2,0.5,0.2,0.8c0,0.3-0.1,0.5-0.2,0.8c-0.2,0.2-0.4,0.4-0.7,0.4
			c-1.8,0-3.6-0.1-5.4-0.3c-1.7-0.2-3.4-0.3-5.1-0.3c-1.8,0-3.6,0.1-5.5,0.3c-1.9,0.2-3.6,0.3-5.2,0.3c-0.3,0-0.5-0.1-0.6-0.4
			c-0.1-0.2-0.2-0.5-0.2-0.8c0-0.3,0.1-0.6,0.2-0.8c0.1-0.2,0.4-0.4,0.6-0.5c1.4-0.1,4.6-0.3,5.4-0.5c0.7-0.2,1.4-0.5,2-1
			c0.5-0.5,0.9-1.2,1-2c0.2-1.2,0.3-2.4,0.2-3.6L9.5,106.3L9.5,106.3z"/>
		<path fill="#F7F7F7" d="M34,106.3c0-1.2-0.1-2.5-0.2-3.7c-0.1-0.9-0.4-1.8-0.9-2.5c-0.5-0.7-1.2-1.2-2-1.5
			c-1.8-0.4-3.6-0.6-5.4-0.6c-0.3,0-0.5-0.1-0.6-0.4c-0.1-0.2-0.2-0.5-0.2-0.8c0-0.3,0.1-0.6,0.2-0.8c0.1-0.2,0.4-0.4,0.6-0.4
			c1.5,0,3.2,0.1,5.1,0.2c1.9,0.1,3.7,0.2,5.4,0.2c1,0,1.9,0,2.8-0.1l2.5-0.1l2.5-0.1c0.8,0,1.8-0.1,2.7-0.1c0.3,0,0.5,0.1,0.6,0.3
			c0.1,0.2,0.2,0.5,0.1,0.8c0,0.3-0.1,0.6-0.2,0.8c-0.1,0.2-0.3,0.4-0.5,0.4c-1.8,0.1-3.7,0.3-5.4,0.6c-0.8,0.3-1.5,0.7-2,1.4
			c-0.5,0.7-0.8,1.6-0.9,2.5c-0.2,1.3-0.2,2.6-0.2,3.9v27.5c0,1.2,0.1,2.4,0.3,3.6c0.1,0.8,0.5,1.4,1,2c0.6,0.5,1.3,0.9,2.1,1
			c0.9,0.2,4,0.4,5.4,0.5c0.3,0.1,0.5,0.2,0.7,0.5c0.2,0.2,0.2,0.5,0.2,0.8c0,0.3-0.1,0.5-0.2,0.8c-0.2,0.2-0.4,0.4-0.7,0.4
			c-1.8,0-3.6-0.1-5.4-0.3c-1.7-0.2-3.4-0.3-5.1-0.3c-1.8,0-3.6,0.1-5.5,0.3c-1.9,0.2-3.6,0.3-5.2,0.3c-0.3,0-0.5-0.1-0.6-0.4
			c-0.1-0.2-0.2-0.5-0.2-0.8c0-0.3,0.1-0.6,0.2-0.8c0.1-0.2,0.4-0.4,0.6-0.5c1.4-0.1,4.6-0.3,5.4-0.5c0.7-0.2,1.4-0.5,2-1
			c0.5-0.5,0.9-1.2,1-2c0.2-1.2,0.3-2.4,0.2-3.6L34,106.3L34,106.3z"/>
		<path fill="#F7F7F7" d="M58.5,106.3c0-1.2-0.1-2.5-0.2-3.7c-0.1-0.9-0.4-1.8-0.9-2.5c-0.5-0.7-1.2-1.2-2-1.5
			c-1.8-0.4-3.6-0.6-5.4-0.6c-0.3,0-0.5-0.1-0.6-0.4C49.1,97.3,49,97,49,96.7c0-0.3,0.1-0.6,0.2-0.8c0.1-0.2,0.4-0.4,0.6-0.4
			c1.5,0,3.2,0.1,5.1,0.2c1.9,0.1,3.7,0.2,5.4,0.2c1,0,1.9,0,2.8-0.1l2.5-0.1l2.5-0.1c0.8,0,1.8-0.1,2.7-0.1c0.3,0,0.5,0.1,0.6,0.3
			c0.1,0.2,0.2,0.5,0.1,0.8c0,0.3-0.1,0.6-0.2,0.8c-0.1,0.2-0.3,0.4-0.5,0.4c-1.8,0.1-3.7,0.3-5.4,0.6c-0.8,0.3-1.5,0.7-2,1.4
			c-0.5,0.7-0.8,1.6-0.9,2.5c-0.2,1.3-0.2,2.6-0.2,3.9v27.5c0,1.2,0.1,2.4,0.3,3.6c0.1,0.8,0.5,1.4,1,2c0.6,0.5,1.3,0.9,2.1,1
			c0.9,0.2,4,0.4,5.4,0.5c0.3,0.1,0.5,0.2,0.7,0.5c0.2,0.2,0.2,0.5,0.2,0.8c0,0.3-0.1,0.5-0.2,0.8c-0.2,0.2-0.4,0.4-0.7,0.4
			c-1.8,0-3.6-0.1-5.4-0.3c-1.7-0.2-3.4-0.3-5.1-0.3c-1.8,0-3.6,0.1-5.5,0.3c-1.9,0.2-3.6,0.3-5.2,0.3c-0.3,0-0.5-0.1-0.6-0.4
			c-0.1-0.2-0.2-0.5-0.2-0.8c0-0.3,0.1-0.6,0.2-0.8c0.1-0.2,0.4-0.4,0.6-0.5c1.4-0.1,4.6-0.3,5.4-0.5c0.7-0.2,1.4-0.5,2-1
			c0.5-0.5,0.9-1.2,1-2c0.2-1.2,0.3-2.4,0.2-3.6L58.5,106.3L58.5,106.3z"/>
	</g>
</g>
</svg>
