<svg id="_1" data-name="1" xmlns="http://www.w3.org/2000/svg" viewBox="0 0 22.92 47.79"><defs><style>.cls-1{fill:#f7f7f7;}</style></defs><title>i</title><path class="cls-1" d="M34,10.73A24.21,24.21,0,0,0,33.72,7a5.91,5.91,0,0,0-.95-2.52,4.42,4.42,0,0,0-2-1.51,30.4,30.4,0,0,0-5.42-.62A0.68,0.68,0,0,1,24.72,2a1.66,1.66,0,0,1-.21-0.81,1.48,1.48,0,0,1,.22-0.8A0.69,0.69,0,0,1,25.35,0q2.24,0,5.12.21t5.4,0.21q1.47,0,2.77-.07l2.52-.14,2.49-.14Q44.91,0,46.38,0a0.62,0.62,0,0,1,.6.35,1.44,1.44,0,0,1,.14.77,2,2,0,0,1-.25.81,0.63,0.63,0,0,1-.52.43A37.06,37.06,0,0,0,40.9,3a4.09,4.09,0,0,0-2,1.4A5.33,5.33,0,0,0,38,6.85a30.1,30.1,0,0,0-.21,3.93V38.26a18,18,0,0,0,.28,3.61,3.77,3.77,0,0,0,1,2,4.4,4.4,0,0,0,2.07,1c0.89,0.21,4,.39,5.38.53a1,1,0,0,1,.67.46,1.48,1.48,0,0,1,.25.81,1.31,1.31,0,0,1-.25.77,0.84,0.84,0,0,1-.74.35,49.4,49.4,0,0,1-5.36-.28A46.79,46.79,0,0,0,36,47.23q-2.67,0-5.5.28t-5.15.28a0.69,0.69,0,0,1-.63-0.35,1.47,1.47,0,0,1-.21-0.77,1.67,1.67,0,0,1,.21-0.81,0.85,0.85,0,0,1,.63-0.46c1.45-.14,4.55-0.32,5.42-0.53a4.39,4.39,0,0,0,2-1,3.59,3.59,0,0,0,1-2A20.61,20.61,0,0,0,34,38.26V10.73h0Z" transform="translate(-24.51)"/></svg>