<svg id="_2" data-name="2" xmlns="http://www.w3.org/2000/svg" viewBox="0 0 47.43 47.79"><defs><style>.cls-1{fill:#f7f7f7;}</style></defs><title>i</title><path class="cls-1" d="M21.72,58.52a24.21,24.21,0,0,0-.25-3.72,5.91,5.91,0,0,0-.95-2.52,4.42,4.42,0,0,0-2-1.51,30.4,30.4,0,0,0-5.42-.62,0.68,0.68,0,0,1-.63-0.39A1.66,1.66,0,0,1,12.26,49a1.48,1.48,0,0,1,.22-0.8,0.69,0.69,0,0,1,.62-0.36q2.24,0,5.12.21t5.4,0.21q1.47,0,2.77-.07L28.91,48l2.49-.14q1.26-.07,2.73-0.07a0.62,0.62,0,0,1,.6.35,1.44,1.44,0,0,1,.14.77,2,2,0,0,1-.25.81,0.63,0.63,0,0,1-.52.43,37.06,37.06,0,0,0-5.45.6,4.09,4.09,0,0,0-2,1.4,5.33,5.33,0,0,0-.91,2.49,30.1,30.1,0,0,0-.21,3.93V86.05a18,18,0,0,0,.28,3.61,3.77,3.77,0,0,0,1,2,4.4,4.4,0,0,0,2.07,1c0.89,0.21,4,.39,5.38.53a1,1,0,0,1,.67.46,1.48,1.48,0,0,1,.25.81,1.31,1.31,0,0,1-.25.77,0.84,0.84,0,0,1-.74.35,49.4,49.4,0,0,1-5.36-.28A46.79,46.79,0,0,0,23.75,95q-2.67,0-5.5.28t-5.15.28a0.69,0.69,0,0,1-.63-0.35,1.47,1.47,0,0,1-.21-0.77,1.67,1.67,0,0,1,.21-0.81,0.85,0.85,0,0,1,.63-0.46c1.45-.14,4.55-0.32,5.42-0.53a4.39,4.39,0,0,0,2-1,3.59,3.59,0,0,0,1-2,20.61,20.61,0,0,0,.25-3.61V58.52h0Z" transform="translate(-12.26 -47.79)"/><path class="cls-1" d="M46.23,58.52A24.21,24.21,0,0,0,46,54.8,5.91,5.91,0,0,0,45,52.28a4.42,4.42,0,0,0-2-1.51,30.4,30.4,0,0,0-5.42-.62A0.68,0.68,0,0,1,37,49.76,1.66,1.66,0,0,1,36.77,49a1.48,1.48,0,0,1,.22-0.8,0.69,0.69,0,0,1,.62-0.36q2.24,0,5.12.21t5.4,0.21q1.47,0,2.77-.07L53.42,48l2.49-.14q1.26-.07,2.73-0.07a0.62,0.62,0,0,1,.6.35,1.44,1.44,0,0,1,.14.77,2,2,0,0,1-.25.81,0.63,0.63,0,0,1-.52.43,37.06,37.06,0,0,0-5.45.6,4.09,4.09,0,0,0-2,1.4,5.33,5.33,0,0,0-.91,2.49A30.1,30.1,0,0,0,50,58.57V86.05a18,18,0,0,0,.28,3.61,3.77,3.77,0,0,0,1,2,4.4,4.4,0,0,0,2.07,1c0.89,0.21,4,.39,5.38.53a1,1,0,0,1,.67.46,1.48,1.48,0,0,1,.25.81,1.31,1.31,0,0,1-.25.77,0.84,0.84,0,0,1-.74.35,49.4,49.4,0,0,1-5.36-.28A46.79,46.79,0,0,0,48.26,95q-2.67,0-5.5.28t-5.15.28A0.69,0.69,0,0,1,37,95.23a1.47,1.47,0,0,1-.21-0.77A1.67,1.67,0,0,1,37,93.65a0.85,0.85,0,0,1,.63-0.46c1.45-.14,4.55-0.32,5.42-0.53a4.39,4.39,0,0,0,2-1,3.59,3.59,0,0,0,1-2,20.61,20.61,0,0,0,.25-3.61V58.52h0Z" transform="translate(-12.26 -47.79)"/></svg>