<svg id="_3" data-name="3" xmlns="http://www.w3.org/2000/svg" viewBox="0 0 71.94 47.79"><defs><style>.cls-1{fill:#f7f7f7;}</style></defs><title>i</title><path class="cls-1" d="M9.46,106.32a24.21,24.21,0,0,0-.25-3.72,5.91,5.91,0,0,0-.95-2.52,4.42,4.42,0,0,0-2-1.51,30.4,30.4,0,0,0-5.42-.62,0.68,0.68,0,0,1-.63-0.39A1.66,1.66,0,0,1,0,96.75a1.48,1.48,0,0,1,.22-0.8,0.69,0.69,0,0,1,.62-0.36q2.24,0,5.12.21T11.36,96q1.47,0,2.77-.07l2.52-.14,2.49-.14q1.26-.07,2.73-0.07a0.62,0.62,0,0,1,.6.35,1.44,1.44,0,0,1,.14.77,2,2,0,0,1-.25.81,0.63,0.63,0,0,1-.52.43,37.06,37.06,0,0,0-5.45.6,4.09,4.09,0,0,0-2,1.4,5.33,5.33,0,0,0-.91,2.49,30.1,30.1,0,0,0-.21,3.93v27.48a18,18,0,0,0,.28,3.61,3.77,3.77,0,0,0,1,2,4.4,4.4,0,0,0,2.07,1c0.89,0.21,4,.39,5.38.53a1,1,0,0,1,.67.46,1.48,1.48,0,0,1,.25.81,1.31,1.31,0,0,1-.25.77,0.84,0.84,0,0,1-.74.35,49.4,49.4,0,0,1-5.36-.28,46.79,46.79,0,0,0-5.08-.28q-2.67,0-5.5.28t-5.15.28A0.69,0.69,0,0,1,.21,143,1.47,1.47,0,0,1,0,142.26a1.67,1.67,0,0,1,.21-0.81A0.85,0.85,0,0,1,.84,141c1.45-.14,4.55-0.32,5.42-0.53a4.39,4.39,0,0,0,2-1,3.59,3.59,0,0,0,1-2,20.61,20.61,0,0,0,.25-3.61V106.32h0Z" transform="translate(0 -95.59)"/><path class="cls-1" d="M34,106.32a24.21,24.21,0,0,0-.25-3.72,5.91,5.91,0,0,0-.95-2.52,4.42,4.42,0,0,0-2-1.51,30.4,30.4,0,0,0-5.42-.62,0.68,0.68,0,0,1-.63-0.39,1.66,1.66,0,0,1-.21-0.81,1.48,1.48,0,0,1,.22-0.8,0.69,0.69,0,0,1,.62-0.36q2.24,0,5.12.21T35.87,96q1.47,0,2.77-.07l2.52-.14,2.49-.14q1.26-.07,2.73-0.07a0.62,0.62,0,0,1,.6.35,1.44,1.44,0,0,1,.14.77,2,2,0,0,1-.25.81,0.63,0.63,0,0,1-.52.43,37.06,37.06,0,0,0-5.45.6,4.09,4.09,0,0,0-2,1.4,5.33,5.33,0,0,0-.91,2.49,30.1,30.1,0,0,0-.21,3.93v27.48a18,18,0,0,0,.28,3.61,3.77,3.77,0,0,0,1,2,4.4,4.4,0,0,0,2.07,1c0.89,0.21,4,.39,5.38.53a1,1,0,0,1,.67.46,1.48,1.48,0,0,1,.25.81,1.31,1.31,0,0,1-.25.77,0.84,0.84,0,0,1-.74.35,49.4,49.4,0,0,1-5.36-.28,46.79,46.79,0,0,0-5.08-.28q-2.67,0-5.5.28t-5.15.28a0.69,0.69,0,0,1-.63-0.35,1.47,1.47,0,0,1-.21-0.77,1.67,1.67,0,0,1,.21-0.81,0.85,0.85,0,0,1,.63-0.46c1.45-.14,4.55-0.32,5.42-0.53a4.39,4.39,0,0,0,2-1,3.59,3.59,0,0,0,1-2,20.61,20.61,0,0,0,.25-3.61V106.32h0Z" transform="translate(0 -95.59)"/><path class="cls-1" d="M58.48,106.32a24.21,24.21,0,0,0-.25-3.72,5.91,5.91,0,0,0-.95-2.52,4.42,4.42,0,0,0-2-1.51,30.4,30.4,0,0,0-5.42-.62,0.68,0.68,0,0,1-.63-0.39A1.66,1.66,0,0,1,49,96.75a1.48,1.48,0,0,1,.22-0.8,0.69,0.69,0,0,1,.62-0.36q2.24,0,5.12.21T60.38,96q1.47,0,2.77-.07l2.52-.14,2.49-.14q1.26-.07,2.73-0.07a0.62,0.62,0,0,1,.6.35,1.44,1.44,0,0,1,.14.77,2,2,0,0,1-.25.81,0.63,0.63,0,0,1-.52.43,37.06,37.06,0,0,0-5.45.6,4.09,4.09,0,0,0-2,1.4,5.33,5.33,0,0,0-.91,2.49,30.1,30.1,0,0,0-.21,3.93v27.48a18,18,0,0,0,.28,3.61,3.77,3.77,0,0,0,1,2,4.4,4.4,0,0,0,2.07,1c0.89,0.21,4,.39,5.38.53a1,1,0,0,1,.67.46,1.48,1.48,0,0,1,.25.81,1.31,1.31,0,0,1-.25.77,0.84,0.84,0,0,1-.74.35,49.4,49.4,0,0,1-5.36-.28,46.79,46.79,0,0,0-5.08-.28q-2.67,0-5.5.28t-5.15.28a0.69,0.69,0,0,1-.63-0.35,1.47,1.47,0,0,1-.21-0.77,1.67,1.67,0,0,1,.21-0.81,0.85,0.85,0,0,1,.63-0.46c1.45-.14,4.55-0.32,5.42-0.53a4.39,4.39,0,0,0,2-1,3.59,3.59,0,0,0,1-2,20.61,20.61,0,0,0,.25-3.61V106.32h0Z" transform="translate(0 -95.59)"/></svg>