<svg id="Layer_1" data-name="Layer 1" xmlns="http://www.w3.org/2000/svg" viewBox="0 0 202 213.08"><defs><style>.cls-1{fill:#925bf7;}.cls-2{opacity:0.3;}.cls-3{fill:none;stroke:#925bf7;stroke-miterlimit:10;stroke-width:3px;}</style></defs><title>li-2</title><path class="cls-1" d="M81.62,94.37a24.21,24.21,0,0,0-.25-3.72,5.91,5.91,0,0,0-.95-2.52,4.42,4.42,0,0,0-2-1.51A30.4,30.4,0,0,0,73,86a0.68,0.68,0,0,1-.63-0.39,1.66,1.66,0,0,1-.21-0.81A1.48,1.48,0,0,1,72.38,84,0.69,0.69,0,0,1,73,83.64q2.24,0,5.12.21t5.4,0.21q1.47,0,2.77-.07l2.52-.14,2.49-.14q1.26-.07,2.73-0.07a0.62,0.62,0,0,1,.6.35,1.44,1.44,0,0,1,.14.77,2,2,0,0,1-.25.81A0.63,0.63,0,0,1,94,86a37.06,37.06,0,0,0-5.45.6,4.09,4.09,0,0,0-2,1.4,5.33,5.33,0,0,0-.91,2.49,30.1,30.1,0,0,0-.21,3.93v27.48a18,18,0,0,0,.28,3.61,3.77,3.77,0,0,0,1,2,4.4,4.4,0,0,0,2.07,1c0.89,0.21,4,.39,5.38.53a1,1,0,0,1,.67.46,1.48,1.48,0,0,1,.25.81,1.31,1.31,0,0,1-.25.77,0.84,0.84,0,0,1-.74.35,49.4,49.4,0,0,1-5.36-.28,46.79,46.79,0,0,0-5.08-.28q-2.67,0-5.5.28t-5.15.28a0.69,0.69,0,0,1-.63-0.35,1.47,1.47,0,0,1-.21-0.77,1.67,1.67,0,0,1,.21-0.81,0.85,0.85,0,0,1,.63-0.46c1.45-.14,4.55-0.32,5.42-0.53a4.39,4.39,0,0,0,2-1,3.59,3.59,0,0,0,1-2,20.61,20.61,0,0,0,.25-3.61V94.37Z" transform="translate(-7 -1.46)"/><path class="cls-1" d="M106.06,94.37a24.21,24.21,0,0,0-.25-3.72,5.91,5.91,0,0,0-.95-2.52,4.42,4.42,0,0,0-2-1.51A30.4,30.4,0,0,0,97.45,86a0.68,0.68,0,0,1-.63-0.39,1.66,1.66,0,0,1-.21-0.81A1.48,1.48,0,0,1,96.82,84a0.69,0.69,0,0,1,.63-0.35q2.24,0,5.12.21t5.4,0.21q1.47,0,2.77-.07l2.52-.14,2.49-.14q1.26-.07,2.73-0.07a0.62,0.62,0,0,1,.6.35,1.44,1.44,0,0,1,.14.77,2,2,0,0,1-.25.81,0.63,0.63,0,0,1-.56.39,37.06,37.06,0,0,0-5.45.6,4.09,4.09,0,0,0-2,1.4,5.33,5.33,0,0,0-.91,2.49,30.1,30.1,0,0,0-.21,3.93v27.48a18,18,0,0,0,.28,3.61,3.77,3.77,0,0,0,1,2,4.4,4.4,0,0,0,2.07,1c0.89,0.21,4,.39,5.38.53a1,1,0,0,1,.67.46,1.48,1.48,0,0,1,.25.81,1.31,1.31,0,0,1-.25.77,0.84,0.84,0,0,1-.74.35,49.4,49.4,0,0,1-5.36-.28,46.79,46.79,0,0,0-5.08-.28q-2.67,0-5.5.28t-5.15.28a0.69,0.69,0,0,1-.63-0.35,1.47,1.47,0,0,1-.21-0.77,1.67,1.67,0,0,1,.21-0.81,0.85,0.85,0,0,1,.63-0.46c1.45-.14,4.55-0.32,5.42-0.53a4.39,4.39,0,0,0,2-1,3.59,3.59,0,0,0,1-2,20.61,20.61,0,0,0,.25-3.61V94.37Z" transform="translate(-7 -1.46)"/><path class="cls-1" d="M130.49,94.37a24.21,24.21,0,0,0-.25-3.72,5.91,5.91,0,0,0-.95-2.52,4.42,4.42,0,0,0-2-1.51,30.4,30.4,0,0,0-5.42-.67,0.68,0.68,0,0,1-.63-0.39,1.66,1.66,0,0,1-.21-0.81,1.48,1.48,0,0,1,.21-0.77,0.69,0.69,0,0,1,.63-0.35q2.24,0,5.12.21t5.4,0.21q1.47,0,2.77-.07l2.52-.14,2.49-.14q1.26-.07,2.73-0.07a0.62,0.62,0,0,1,.6.35,1.44,1.44,0,0,1,.14.77,2,2,0,0,1-.25.81,0.63,0.63,0,0,1-.56.39,37.06,37.06,0,0,0-5.45.6,4.09,4.09,0,0,0-2,1.4,5.33,5.33,0,0,0-.91,2.49,30.1,30.1,0,0,0-.21,3.93v27.48a18,18,0,0,0,.28,3.61,3.77,3.77,0,0,0,1,2,4.4,4.4,0,0,0,2.07,1c0.89,0.21,4,.39,5.38.53a1,1,0,0,1,.67.46,1.48,1.48,0,0,1,.25.81,1.31,1.31,0,0,1-.25.77,0.84,0.84,0,0,1-.74.35,49.4,49.4,0,0,1-5.36-.28,46.79,46.79,0,0,0-5.08-.28q-2.67,0-5.5.28t-5.15.28a0.69,0.69,0,0,1-.63-0.35,1.47,1.47,0,0,1-.21-0.77,1.67,1.67,0,0,1,.21-0.81,0.85,0.85,0,0,1,.63-0.46c1.45-.14,4.55-0.32,5.42-0.53a4.39,4.39,0,0,0,2-1,3.59,3.59,0,0,0,1-2,20.61,20.61,0,0,0,.25-3.61V94.37Z" transform="translate(-7 -1.46)"/><g class="cls-2"><polygon class="cls-3" points="101 211.25 194.5 145.53 194.5 68.16 101.13 1.84 7.5 68.16 7.5 145.53 101 211.25"/><line class="cls-3" x1="189" y1="106.04" x2="202" y2="106.04"/><path class="cls-3" d="M138.82,9.66" transform="translate(-7 -1.46)"/><path class="cls-3" d="M134.61,22.63" transform="translate(-7 -1.46)"/><path class="cls-3" d="M76.09,11.08" transform="translate(-7 -1.46)"/><path class="cls-3" d="M80.3,24" transform="translate(-7 -1.46)"/><line class="cls-3" x1="13" y1="107.04" y2="107.04"/><path class="cls-3" d="M77.16,206.47" transform="translate(-7 -1.46)"/><path class="cls-3" d="M81.37,193.51" transform="translate(-7 -1.46)"/></g></svg>