<svg id="Layer_1" data-name="Layer 1" xmlns="http://www.w3.org/2000/svg" viewBox="0 0 156.75 127.38"><title>Vector Smart Object3</title><path d="M156.75,15.08a64.37,64.37,0,0,1-18.47,5.06A32.28,32.28,0,0,0,152.41,2.35,64.4,64.4,0,0,1,132,10.15,32.17,32.17,0,0,0,77.2,39.48,91.3,91.3,0,0,1,10.91,5.89a32.2,32.2,0,0,0,10,42.93,32,32,0,0,1-14.57-4V45.2A32.19,32.19,0,0,0,32.09,76.73a32.34,32.34,0,0,1-14.52.55,32.22,32.22,0,0,0,30,22.34A64.6,64.6,0,0,1,7.67,113.38,66.86,66.86,0,0,1,0,112.93a91.06,91.06,0,0,0,49.3,14.45c59.15,0,91.49-49,91.49-91.5,0-1.39,0-2.78-.1-4.16a65.61,65.61,0,0,0,16.05-16.64h0Z" transform="translate(0 0)"/></svg>